<?xml version="1.0" encoding="UTF-8" standalone="no"?>
<!DOCTYPE svg PUBLIC "-//W3C//DTD SVG 1.1//EN" "http://www.w3.org/Graphics/SVG/1.1/DTD/svg11.dtd">
<svg width="100%" height="100%" viewBox="0 0 1024 1024" version="1.1" xmlns="http://www.w3.org/2000/svg" xmlns:xlink="http://www.w3.org/1999/xlink" xml:space="preserve" xmlns:serif="http://www.serif.com/" style="fill-rule:evenodd;clip-rule:evenodd;stroke-linejoin:round;stroke-miterlimit:2;">
    <g transform="matrix(1.02628,0,0,1.0414,-15.7139,-17.8564)">
        <path d="M1013.09,262.969L1013.09,754.613C1013.09,890.286 901.32,1000.44 763.647,1000.44L264.757,1000.44C127.084,1000.44 15.312,890.286 15.312,754.613L15.312,262.969C15.312,127.296 127.084,17.146 264.757,17.146L763.647,17.146C901.32,17.146 1013.09,127.296 1013.09,262.969Z" style="fill:rgb(254,180,19);"/>
    </g>
    <g transform="matrix(1,0,0,1,-40.491,-15.2517)">
        <g transform="matrix(7.44743,0,0,3.41341,-3644.72,-515.543)">
            <path d="M530,297C526.367,297.442 526.346,308.498 530,309L556.583,309C560.005,308.689 560.365,297.681 556.583,297L530,297Z" style="fill:rgb(13,89,231);"/>
        </g>
        <g transform="matrix(6.8434,2.93805,-1.34661,3.13656,-2370.42,-1770.81)">
            <path d="M530,297C526.367,297.442 526.346,308.498 530,309L536.417,309C539.838,308.689 540.199,297.681 536.417,297L530,297Z" style="fill:rgb(13,89,231);"/>
        </g>
        <g transform="matrix(2.84851,6.88115,-3.15386,1.30557,129.101,-3491)">
            <path d="M530,297C526.367,297.442 526.346,308.498 530,309L536.417,309C539.838,308.689 540.199,297.681 536.417,297L530,297Z" style="fill:rgb(13,89,231);"/>
        </g>
        <g transform="matrix(3.32826,-6.66235,3.05358,1.52545,-1913.95,3670.37)">
            <path d="M530,297C526.367,297.442 526.346,308.498 530,309L543.292,309C546.713,308.689 547.074,297.681 543.292,297L530,297Z" style="fill:rgb(13,89,231);"/>
        </g>
        <g transform="matrix(6.56149,-3.52293,1.61468,3.00735,-3129.86,1608.9)">
            <path d="M530,297C526.367,297.442 526.346,308.498 530,309L543.292,309C546.713,308.689 547.074,297.681 543.292,297L530,297Z" style="fill:rgb(13,89,231);"/>
        </g>
        <g transform="matrix(7.44743,0,0,3.41341,-3644.72,-631.895)">
            <path d="M530,297C526.367,297.442 526.346,308.498 530,309L566.667,309C570.088,308.689 570.449,297.681 566.667,297L530,297Z" style="fill:rgb(13,89,231);"/>
        </g>
        <g transform="matrix(3.41341,0,0,3.41341,-1501.67,-627.215)">
            <path d="M639.959,322C639.959,322 640,270.361 640,256C640,249.687 634.929,244 628,244L511,244C504.897,244 499,248.946 499,256C499,273.942 499.027,431.023 499.027,431.023C499.027,431.023 498.998,433.985 502.326,430.657C505.655,427.328 509.009,423.933 516.978,415.964C520.867,412.074 526.932,411.886 531.148,416.102C538.007,422.961 542.353,426.911 545.281,430.322C546.285,431.326 546.284,431.32 547.289,430.316C549.193,428.412 557.636,419.467 561.079,416.024C565.118,411.985 570.724,411.655 575.791,416.119C581.88,422.208 577.316,417.532 587.066,427.344C592.925,433.464 583.696,441.102 578.646,435.973C571.597,428.814 571.63,429.022 569.564,426.97C568.825,426.133 568.3,426.132 567.583,426.971C561.482,433.072 560.373,434.186 553.321,441.238C549.312,445.246 543.179,445.11 539.349,441.28C534.723,436.654 528.331,430.325 524.986,426.98C524.134,426.128 523.842,426.13 522.99,426.982C517.06,432.912 512.037,437.811 507.75,441.962C502.707,446.562 487,445.869 487,431C487,407.338 486.986,293.383 486.986,255.876C486.986,242.859 498.018,232.018 511.035,232.018C538.163,232.018 628.032,231.962 628.032,231.962C641.51,231.962 652,242.381 652,256C652,282.268 652.005,318.001 652.005,322C652.005,330.04 639.959,330.014 639.959,322Z" style="fill:rgb(13,89,231);"/>
        </g>
    </g>
</svg>
